<?xml version="1.0" encoding="UTF-8"?>
<svg xmlns="http://www.w3.org/2000/svg" width="640" height="400" viewBox="0 0 640 400">
  <title>Flour Flour Bakery full logo — refined typography</title>
  <desc>Approved flower mark with sharper premium geometric lettering.</desc>
  <g transform="translate(160 5)">
    <path d="M 81.780 27.019 L 79.500 31.038 74 30.769 L 68.500 30.500 65.562 39 L 62.624 47.500 62.562 57 L 62.500 66.500 64.729 71.330 C 65.955 73.986, 68.266 77.811, 69.866 79.830 L 72.774 83.500 63.122 83.500 L 53.470 83.500 46.777 86.792 L 40.084 90.084 32.542 98.280 C 28.394 102.788, 25 107.029, 25 107.704 C 25 108.378, 26.365 110.485, 28.034 112.386 L 31.067 115.841 29.037 119.170 C 27.921 121.002, 27.006 123.248, 27.004 124.162 L 27 125.824 33.250 130.276 C 41.877 136.420, 49.092 139.900, 55.761 141.133 L 61.416 142.178 67.445 140.992 C 70.761 140.340, 74.718 139.163, 76.237 138.377 C 77.757 137.592, 79 137.131, 79 137.353 C 79 137.576, 77.763 140.400, 76.251 143.629 L 73.502 149.500 73.501 157.500 L 73.500 165.500 75.350 170.296 C 77.338 175.447, 85.880 191, 86.722 191 C 87.002 191, 89.444 190.214, 92.148 189.254 L 97.064 187.508 99.605 190.754 C 101.002 192.539, 102.794 194, 103.588 194 C 105.817 194, 118.453 184.428, 122.913 179.361 C 125.110 176.866, 127.919 172.733, 129.157 170.177 L 131.407 165.529 131.820 156.879 L 132.234 148.229 136.367 152.267 C 138.640 154.488, 142.933 157.427, 145.906 158.797 L 151.312 161.289 158.163 161.780 L 165.013 162.270 174.257 160.453 C 179.340 159.454, 184.037 158.234, 184.694 157.742 L 185.888 156.848 185.335 152.174 L 184.782 147.500 189.391 145.263 C 191.926 144.033, 194 142.655, 194 142.201 C 194 140.651, 188.274 124.430, 186.550 121.096 C 184.275 116.697, 177.607 109.539, 173.313 106.885 C 171.419 105.714, 167.311 103.987, 164.185 103.047 L 158.500 101.337 163.608 98.724 L 168.715 96.111 173.304 91.007 L 177.892 85.903 179.961 80.374 C 182.156 74.507, 183.947 64.237, 183.980 57.329 L 184 53.159 180.750 52.505 C 178.963 52.145, 176.752 51.642, 175.838 51.386 L 174.177 50.921 173.505 46.036 L 172.833 41.150 171.666 40.777 C 171.025 40.572, 165.100 40.673, 158.500 41.001 L 146.500 41.599 140.954 44.150 C 134.151 47.281, 128.601 52.040, 124.992 57.838 L 122.261 62.226 121.548 57.363 C 121.156 54.688, 119.981 50.552, 118.938 48.170 C 114.733 38.570, 107.102 32.046, 93.145 26.122 C 89.100 24.405, 85.401 23, 84.925 23 C 84.449 23, 83.034 24.809, 81.780 27.019 M 85.556 31.824 C 85.238 32.827, 84.104 34.584, 83.037 35.729 L 81.098 37.811 77.300 36.955 L 73.502 36.098 72.642 36.958 C 72.169 37.431, 70.931 40.887, 69.891 44.637 L 68 51.457 68.010 57.978 L 68.020 64.500 70.384 69.500 L 72.749 74.500 77.624 79.337 C 80.306 81.998, 86.166 86.621, 90.647 89.611 C 95.129 92.601, 99.283 95.637, 99.881 96.356 L 100.966 97.664 99.625 99.499 L 98.283 101.333 87.321 96.152 L 76.359 90.971 69.525 89.541 L 62.690 88.111 57.862 89.026 C 49.194 90.670, 41.597 95.671, 34.876 104.157 L 31.739 108.118 34.369 110.864 C 35.816 112.374, 36.986 114.485, 36.968 115.555 C 36.951 116.625, 36.276 118.374, 35.468 119.441 C 34.661 120.509, 34 121.937, 34 122.614 C 34 124.467, 46.765 132.567, 52.771 134.525 L 58.043 136.244 63.330 135.806 L 68.618 135.367 75.059 132.335 C 78.602 130.668, 85.286 126.310, 89.913 122.652 C 94.540 118.993, 99.167 116, 100.194 116 C 101.222 116, 102.328 116.692, 102.653 117.538 L 103.243 119.077 97.340 125.288 C 89.222 133.831, 84.646 139.697, 81.988 144.971 L 79.734 149.441 79.235 155.667 L 78.735 161.893 80.459 167.196 C 81.408 170.113, 83.768 175.116, 85.703 178.314 L 89.223 184.128 90.861 183.441 C 91.763 183.063, 93.730 182.264, 95.233 181.664 L 97.966 180.574 101.320 183.826 L 104.675 187.077 110.632 182.692 C 117.344 177.751, 122.259 172.012, 124.637 166.338 L 126.246 162.500 126.295 156.500 C 126.354 149.311, 124.727 142.037, 120.864 132.224 C 119.289 128.222, 118 124.046, 118 122.943 L 118 120.937 119.656 120.302 L 121.312 119.666 122.906 121.767 C 123.783 122.922, 126.525 127.582, 129 132.123 C 134.280 141.809, 141.647 150.259, 147.403 153.230 L 151.500 155.345 159.500 155.747 L 167.500 156.148 173.500 154.740 L 179.500 153.332 179.165 148.730 L 178.831 144.127 183.007 141.996 L 187.183 139.866 186.562 137.392 C 185.037 131.314, 181.573 123.594, 178.633 119.718 C 176.873 117.398, 173.318 114.076, 170.733 112.336 L 166.033 109.173 160.967 108.086 C 158.181 107.489, 149.835 107, 142.419 107 L 128.937 107 128.306 105.355 L 127.675 103.711 129.356 102.482 C 130.280 101.806, 133.391 100.952, 136.268 100.584 C 144.954 99.474, 154.182 96.899, 160.087 93.938 L 165.673 91.136 168.981 87.369 C 170.800 85.297, 173.122 81.719, 174.139 79.418 C 176.293 74.550, 178.604 61.017, 177.690 58.634 L 177.063 57 174.723 57 C 173.435 57, 171.631 56.438, 170.713 55.750 C 169.795 55.063, 168.678 52.700, 168.232 50.500 L 167.421 46.500 163.008 46.183 C 156.672 45.727, 146.480 47.723, 141.021 50.489 C 138.436 51.799, 134.831 54.567, 133.011 56.640 C 128.777 61.463, 125.818 68.009, 122.262 80.416 L 119.421 90.332 117.738 91.394 L 116.055 92.455 114.905 91.305 L 113.755 90.155 115.013 80.279 L 116.272 70.404 115.809 61.952 L 115.345 53.500 113.131 49.209 C 111.914 46.849, 109.145 43.198, 106.979 41.096 C 104.814 38.994, 99.685 35.638, 95.583 33.637 C 91.480 31.637, 87.676 30, 87.129 30 C 86.582 30, 85.874 30.821, 85.556 31.824" stroke="none" fill="#B3896E" fill-rule="evenodd"/>
    <path d="M 263.216 118.891 C 260.309 119.895, 256.758 121.792, 255.325 123.108 C 253.891 124.424, 251.488 128.175, 249.985 131.445 L 247.253 137.389 245.512 133.945 C 243.330 129.626, 239.298 125.238, 235.860 123.442 C 234.408 122.683, 230.715 121.669, 227.654 121.189 L 222.089 120.317 221.465 123.158 L 220.841 126 217.921 126 L 215 126 215.006 131.250 C 215.009 134.137, 215.497 138.250, 216.091 140.388 L 217.170 144.276 222.193 149.092 L 227.216 153.908 224.358 154.523 C 222.786 154.862, 219.600 155.815, 217.278 156.641 L 213.057 158.144 210.374 161.322 C 208.898 163.070, 206.876 166.300, 205.881 168.500 L 204.071 172.500 206.130 174.076 L 208.189 175.651 207.844 178.530 L 207.500 181.409 213.500 183.261 L 219.500 185.113 223.620 184.515 L 227.740 183.916 232.405 180.958 C 234.970 179.331, 237.181 178, 237.317 178 C 237.454 178, 237.388 181.138, 237.171 184.972 L 236.777 191.945 239.300 196.222 C 240.687 198.575, 243.166 201.778, 244.809 203.340 L 247.797 206.179 250.315 204.529 L 252.834 202.879 254.986 204.190 L 257.139 205.500 259.657 202.500 C 263.148 198.340, 265.952 192.089, 265.978 188.409 C 265.990 186.709, 265.369 183.221, 264.598 180.659 C 263.827 178.097, 263.319 176, 263.471 176 C 263.622 176, 265.877 176.943, 268.482 178.095 L 273.219 180.190 278.234 180.151 L 283.249 180.113 288.551 177.430 L 293.854 174.747 292.895 172.223 L 291.935 169.698 293.933 167.571 L 295.932 165.444 292.216 160.528 C 290.172 157.824, 287.035 154.756, 285.244 153.711 L 281.989 151.809 275.988 151.265 L 269.988 150.721 273.482 146.457 C 275.404 144.111, 277.432 140.995, 277.988 139.531 C 279.130 136.529, 279.310 129.801, 278.375 125.125 L 277.750 122 275.036 122 L 272.321 122 271.182 119.500 C 270.555 118.125, 269.696 117.015, 269.271 117.033 C 268.847 117.051, 266.122 117.887, 263.216 118.891" stroke="none" fill="#A16C4C" fill-rule="evenodd"/>
  </g>
  <g fill="#B98505">
    <path d="M94 0L94 700L605 700L605 591L224 591L224 0ZM213 268L213 378L562 378L562 268Z" transform="translate(105.000 305) scale(0.0542857 -0.0542857)"/>
    <path d="M94 0L94 700L224 700L224 110L590 110L590 0Z" transform="translate(142.018 305) scale(0.0542857 -0.0542857)"/>
    <path d="M422 -10Q340 -10 271 17Q202 44 151 92.5Q100 141 72 206.5Q44 272 44 350Q44 428 72 493.5Q100 559 151 607.5Q202 656 271 683Q340 710 421 710Q503 710 571.5 683Q640 656 691 607.5Q742 559 770 493.5Q798 428 798 350Q798 272 770 206Q742 140 691 92Q640 44 571.5 17Q503 -10 422 -10ZM421 104Q474 104 519 122Q564 140 597 173.5Q630 207 648.5 251.5Q667 296 667 350Q667 404 648.5 448.5Q630 493 597 526.5Q564 560 519 578Q474 596 421 596Q368 596 323.5 578Q279 560 245.5 526.5Q212 493 193.5 448.5Q175 404 175 350Q175 297 193.5 252Q212 207 245 173.5Q278 140 323 122Q368 104 421 104Z" transform="translate(176.973 305) scale(0.0542857 -0.0542857)"/>
    <path d="M395 -10Q251 -10 169.5 71Q88 152 88 305L88 700L218 700L218 310Q218 202 264.5 153Q311 104 396 104Q481 104 527 153Q573 202 573 310L573 700L701 700L701 305Q701 152 619.5 71Q538 -10 395 -10Z" transform="translate(225.119 305) scale(0.0542857 -0.0542857)"/>
    <path d="M94 0L94 700L381 700Q521 700 600.5 634Q680 568 680 451Q680 374 644 318.5Q608 263 541.5 233.5Q475 204 382 204L166 204L224 263L224 0ZM552 0L375 254L514 254L692 0ZM224 249L166 311L376 311Q462 311 505.5 348Q549 385 549 451Q549 518 505.5 554Q462 590 376 590L166 590L224 654Z" transform="translate(270.388 305) scale(0.0542857 -0.0542857)"/>
    <path d="M94 0L94 700L605 700L605 591L224 591L224 0ZM213 268L213 378L562 378L562 268Z" transform="translate(329.929 305) scale(0.0542857 -0.0542857)"/>
    <path d="M94 0L94 700L224 700L224 110L590 110L590 0Z" transform="translate(366.947 305) scale(0.0542857 -0.0542857)"/>
    <path d="M422 -10Q340 -10 271 17Q202 44 151 92.5Q100 141 72 206.5Q44 272 44 350Q44 428 72 493.5Q100 559 151 607.5Q202 656 271 683Q340 710 421 710Q503 710 571.5 683Q640 656 691 607.5Q742 559 770 493.5Q798 428 798 350Q798 272 770 206Q742 140 691 92Q640 44 571.5 17Q503 -10 422 -10ZM421 104Q474 104 519 122Q564 140 597 173.5Q630 207 648.5 251.5Q667 296 667 350Q667 404 648.5 448.5Q630 493 597 526.5Q564 560 519 578Q474 596 421 596Q368 596 323.5 578Q279 560 245.5 526.5Q212 493 193.5 448.5Q175 404 175 350Q175 297 193.5 252Q212 207 245 173.5Q278 140 323 122Q368 104 421 104Z" transform="translate(401.902 305) scale(0.0542857 -0.0542857)"/>
    <path d="M395 -10Q251 -10 169.5 71Q88 152 88 305L88 700L218 700L218 310Q218 202 264.5 153Q311 104 396 104Q481 104 527 153Q573 202 573 310L573 700L701 700L701 305Q701 152 619.5 71Q538 -10 395 -10Z" transform="translate(450.048 305) scale(0.0542857 -0.0542857)"/>
    <path d="M94 0L94 700L381 700Q521 700 600.5 634Q680 568 680 451Q680 374 644 318.5Q608 263 541.5 233.5Q475 204 382 204L166 204L224 263L224 0ZM552 0L375 254L514 254L692 0ZM224 249L166 311L376 311Q462 311 505.5 348Q549 385 549 451Q549 518 505.5 554Q462 590 376 590L166 590L224 654Z" transform="translate(495.317 305) scale(0.0542857 -0.0542857)"/>
    <path d="M94 0L94 700L422 700Q548 700 614 650.5Q680 601 680 518Q680 462 654 422.5Q628 383 584.5 361.5Q541 340 490 340L508 376Q567 376 614 354.5Q661 333 688.5 292Q716 251 716 190Q716 100 647 50Q578 0 442 0ZM224 102L434 102Q507 102 546 126Q585 150 585 203Q585 255 546 279.5Q507 304 434 304L214 304L214 405L408 405Q476 405 512.5 429Q549 453 549 501Q549 550 512.5 574Q476 598 408 598L224 598Z" transform="translate(219.000 359) scale(0.0371429 -0.0371429)"/>
    <path d="M-5 0L310 700L438 700L754 0L618 0L347 631L399 631L129 0ZM140 162L175 264L553 264L588 162Z" transform="translate(255.715 359) scale(0.0371429 -0.0371429)"/>
    <path d="M210 165L203 319L570 700L716 700L411 376L339 297ZM94 0L94 700L224 700L224 0ZM582 0L314 319L400 414L734 0Z" transform="translate(291.985 359) scale(0.0371429 -0.0371429)"/>
    <path d="M94 0L94 700L605 700L605 591L224 591L224 109L619 109L619 0ZM214 302L214 409L562 409L562 302Z" transform="translate(327.512 359) scale(0.0371429 -0.0371429)"/>
    <path d="M94 0L94 700L381 700Q521 700 600.5 634Q680 568 680 451Q680 374 644 318.5Q608 263 541.5 233.5Q475 204 382 204L166 204L224 263L224 0ZM552 0L375 254L514 254L692 0ZM224 249L166 311L376 311Q462 311 505.5 348Q549 385 549 451Q549 518 505.5 554Q462 590 376 590L166 590L224 654Z" transform="translate(360.847 359) scale(0.0371429 -0.0371429)"/>
    <path d="M266 0L266 277L295 197L-9 700L130 700L374 295L296 295L542 700L670 700L366 197L396 277L396 0Z" transform="translate(396.449 359) scale(0.0371429 -0.0371429)"/>
  </g>
</svg>
